<svg width="26" height="26" viewBox="0 0 26 26" fill="none" xmlns="http://www.w3.org/2000/svg">
<path d="M19.8554 24.375C18.8641 24.375 17.4717 24.0165 15.3866 22.8516C12.8511 21.4297 10.8899 20.117 8.36814 17.6018C5.93673 15.1719 4.75353 13.5987 3.09755 10.5854C1.22677 7.18302 1.54568 5.39959 1.90216 4.63736C2.32669 3.72635 2.95333 3.18146 3.76329 2.64064C4.22335 2.33922 4.7102 2.08084 5.21767 1.86877C5.26845 1.84693 5.31568 1.82611 5.35783 1.80732C5.60919 1.69408 5.99005 1.52295 6.47247 1.70576C6.79443 1.82662 7.08185 2.07392 7.53177 2.51826C8.45447 3.42826 9.71536 5.45494 10.1805 6.45025C10.4928 7.12107 10.6995 7.56388 10.7 8.06052C10.7 8.64197 10.4075 9.09037 10.0526 9.57431C9.98603 9.66521 9.92001 9.75205 9.85603 9.83635C9.46958 10.3442 9.38478 10.4909 9.44064 10.7529C9.55388 11.2795 10.3984 12.8472 11.7862 14.232C13.1741 15.6168 14.6965 16.4079 15.2251 16.5207C15.4983 16.5791 15.6481 16.4907 16.1722 16.0906C16.2474 16.0332 16.3245 15.9738 16.4053 15.9144C16.9466 15.5117 17.3742 15.2268 17.9419 15.2268H17.945C18.4391 15.2268 18.8621 15.4411 19.5629 15.7945C20.4769 16.2556 22.5645 17.5003 23.4801 18.424C23.9255 18.8729 24.1738 19.1593 24.2952 19.4807C24.478 19.9647 24.3058 20.344 24.1936 20.5979C24.1748 20.6401 24.154 20.6863 24.1322 20.7376C23.9184 21.2441 23.6585 21.7299 23.3557 22.1889C22.8159 22.9963 22.269 23.6214 21.3559 24.0465C20.8871 24.2682 20.374 24.3806 19.8554 24.375Z" fill="#1C2513"/>
</svg>
