<svg width="28" height="28" viewBox="0 0 28 28" fill="none" xmlns="http://www.w3.org/2000/svg">
<path d="M6.79467 4.23734L14 11.4427L21.168 4.27467C21.3263 4.10614 21.5171 3.97133 21.7288 3.87831C21.9405 3.78529 22.1688 3.73598 22.4 3.73334C22.8951 3.73334 23.3699 3.93 23.7199 4.28007C24.07 4.63014 24.2667 5.10493 24.2667 5.6C24.271 5.82886 24.2286 6.05619 24.1419 6.26805C24.0552 6.47991 23.9262 6.67182 23.7627 6.832L16.5013 14L23.7627 21.2613C24.0703 21.5623 24.2507 21.9699 24.2667 22.4C24.2667 22.8951 24.07 23.3699 23.7199 23.7199C23.3699 24.07 22.8951 24.2667 22.4 24.2667C22.1621 24.2765 21.9248 24.2368 21.703 24.1501C21.4813 24.0633 21.28 23.9314 21.112 23.7627L14 16.5573L6.81334 23.744C6.65561 23.9069 6.46719 24.037 6.25894 24.1267C6.05069 24.2164 5.82674 24.264 5.6 24.2667C5.10493 24.2667 4.63014 24.07 4.28007 23.7199C3.93 23.3699 3.73334 22.8951 3.73334 22.4C3.72898 22.1711 3.77144 21.9438 3.85811 21.732C3.94478 21.5201 4.07383 21.3282 4.23734 21.168L11.4987 14L4.23734 6.73867C3.92968 6.43769 3.74928 6.03011 3.73334 5.6C3.73334 5.10493 3.93 4.63014 4.28007 4.28007C4.63014 3.93 5.10493 3.73334 5.6 3.73334C6.048 3.73894 6.47734 3.92 6.79467 4.23734Z" fill="white"/>
</svg>
