<svg width="15" height="20" viewBox="0 0 15 20" fill="none" xmlns="http://www.w3.org/2000/svg">
<path d="M1.71661e-05 1.00057L1.71661e-05 19.0006C0.000588497 19.1828 0.0508517 19.3614 0.145395 19.5173C0.239939 19.6731 0.375182 19.8001 0.53657 19.8848C0.697957 19.9694 0.879377 20.0085 1.0613 19.9977C1.24322 19.9869 1.41876 19.9267 1.56902 19.8236L14.569 10.8236C15.108 10.4506 15.108 9.55257 14.569 9.17857L1.56902 0.178574C1.41907 0.0743986 1.24345 0.0133079 1.06122 0.00193892C0.878996 -0.00943004 0.697139 0.0293576 0.53541 0.114088C0.373681 0.198818 0.238263 0.32625 0.143873 0.482538C0.049483 0.638826 -0.000270418 0.817994 1.71661e-05 1.00057ZM12.243 10.0006L2.00002 17.0926L2.00002 2.90857L12.243 10.0006Z" fill="#1C2513" fill-opacity="0.88"/>
</svg>
