<svg width="15" height="20" viewBox="0 0 15 20" fill="none" xmlns="http://www.w3.org/2000/svg">
<path d="M14.9732 18.9989V0.998877C14.9727 0.816635 14.9224 0.638001 14.8279 0.482201C14.7333 0.3264 14.5981 0.199335 14.4367 0.114681C14.2753 0.0300274 14.0939 -0.00900926 13.912 0.00177383C13.73 0.0125569 13.5545 0.0727507 13.4042 0.175877L0.40425 9.17588C-0.13475 9.54888 -0.13475 10.4469 0.40425 10.8209L13.4042 19.8209C13.5542 19.9251 13.7298 19.9861 13.912 19.9975C14.0943 20.0089 14.2761 19.9701 14.4379 19.8854C14.5996 19.8006 14.735 19.6732 14.8294 19.5169C14.9238 19.3606 14.9735 19.1815 14.9732 18.9989ZM2.73025 9.99888L12.9732 2.90688V17.0909L2.73025 9.99888Z" fill="white" fill-opacity="0.88"/>
</svg>
