<svg width="35" height="35" viewBox="0 0 35 35" fill="none" xmlns="http://www.w3.org/2000/svg">
<path d="M8.74996 10.2083H16.0416C16.4284 10.2083 16.7993 10.362 17.0728 10.6354C17.3463 10.9089 17.5 11.2799 17.5 11.6666C17.5 12.0534 17.3463 12.4244 17.0728 12.6978C16.7993 12.9713 16.4284 13.125 16.0416 13.125H8.74996C8.36319 13.125 7.99225 12.9713 7.71876 12.6978C7.44527 12.4244 7.29163 12.0534 7.29163 11.6666C7.29163 11.2799 7.44527 10.9089 7.71876 10.6354C7.99225 10.362 8.36319 10.2083 8.74996 10.2083ZM18.9583 21.875H26.25C26.6367 21.875 27.0077 22.0286 27.2812 22.3021C27.5546 22.5756 27.7083 22.9465 27.7083 23.3333C27.7083 23.7201 27.5546 24.091 27.2812 24.3645C27.0077 24.638 26.6367 24.7916 26.25 24.7916H18.9583C18.5715 24.7916 18.2006 24.638 17.9271 24.3645C17.6536 24.091 17.5 23.7201 17.5 23.3333C17.5 22.9465 17.6536 22.5756 17.9271 22.3021C18.2006 22.0286 18.5715 21.875 18.9583 21.875ZM8.74996 16.0416H26.25C26.6367 16.0416 27.0077 16.1953 27.2812 16.4688C27.5546 16.7423 27.7083 17.1132 27.7083 17.5C27.7083 17.8868 27.5546 18.2577 27.2812 18.5312C27.0077 18.8047 26.6367 18.9583 26.25 18.9583H8.74996C8.36319 18.9583 7.99225 18.8047 7.71876 18.5312C7.44527 18.2577 7.29163 17.8868 7.29163 17.5C7.29163 17.1132 7.44527 16.7423 7.71876 16.4688C7.99225 16.1953 8.36319 16.0416 8.74996 16.0416Z" fill="white"/>
</svg>
